<svg width="53" height="41" viewBox="0 0 53 41" fill="none" xmlns="http://www.w3.org/2000/svg">
<path d="M17.1306 19.6312C14.1593 20.468 12.166 22.9304 12.3664 25.5649C13.3105 24.5463 14.7522 23.6671 16.4987 23.0889L17.1306 19.6312ZM7.93427 23.623L5.30663 9.24822C5.28261 9.1185 5.32981 9.03842 5.3265 9.03602C10.1097 6.46871 15.5224 5.11139 20.9789 5.11139C21.1122 5.11139 21.2464 5.125 21.3805 5.1266C22.5358 4.04795 24.0082 3.29842 25.6528 3.04457C27.2172 2.80273 28.8038 2.68021 30.3881 2.61855C29.5608 1.50146 28.3608 0.678262 26.929 0.456445C24.9489 0.151348 22.9589 0 20.9781 0C14.6297 0 8.36572 1.55512 2.74938 4.56926C0.747797 5.64391 -0.324625 7.88609 0.0869534 10.1363L2.71459 24.5111C3.89302 30.959 14.0044 35.8886 19.6456 35.8886C19.9429 35.8886 20.2046 35.8518 20.4746 35.8246C19.3549 34.4568 18.078 32.583 17.2035 30.4129C13.2608 29.3735 8.42037 26.2792 7.93427 23.623ZM16.0126 12.6155C15.9522 12.2856 15.828 11.9853 15.6756 11.7026C14.9924 12.4161 13.9638 12.9638 12.7506 13.1696C11.5374 13.3763 10.3764 13.2017 9.4812 12.7556C9.43814 13.0712 9.4282 13.3947 9.48866 13.7246C9.80666 15.4623 11.5242 16.6226 13.3262 16.3167C15.1274 16.0108 16.3306 14.3532 16.0126 12.6155ZM50.2506 9.68145C42.882 5.72719 34.3978 4.28338 26.071 5.56943C23.8094 5.91857 22.0066 7.67229 21.5958 9.92248L18.9682 24.2973C17.6937 31.2681 26.8586 40.0142 32.0783 40.9015C37.2979 41.7896 49.0109 36.5941 50.2854 29.6233L52.913 15.2485C53.3246 12.9975 52.2522 10.7553 50.2506 9.68145ZM27.6229 17.433C27.9409 15.6953 29.6585 14.535 31.4605 14.8417C33.2625 15.1484 34.4649 16.8052 34.1477 18.5429C34.0873 18.8728 33.9631 19.1731 33.8107 19.4558C33.1275 18.7423 32.099 18.1946 30.8858 17.9888C29.6725 17.7821 28.5115 17.9567 27.6163 18.4028C27.5724 18.0864 27.5625 17.7629 27.6229 17.433ZM33.4587 33.3493C28.8477 32.5654 25.7141 28.6031 26.0851 24.3085C27.791 26.3537 30.74 28.0057 34.3241 28.6151C37.9083 29.2245 41.2655 28.6447 43.5933 27.2858C42.419 31.4451 38.0689 34.1333 33.4587 33.3493ZM44.2492 21.2303C43.566 20.5168 42.5366 19.9691 41.3234 19.7633C40.1102 19.5567 38.9492 19.7313 38.054 20.1773C38.0109 19.8618 38.001 19.5383 38.0615 19.2083C38.3795 17.4706 40.097 16.3103 41.899 16.6162C43.7002 16.9229 44.9034 18.5797 44.5863 20.3174C44.5258 20.6481 44.4016 20.9484 44.2492 21.2303Z" fill="#24D2D2"/>
</svg>
