<svg width="43" height="43" viewBox="0 0 43 43" fill="none" xmlns="http://www.w3.org/2000/svg">
<path d="M30.6567 26.9251L21.5 34.9372L12.3433 26.9251C5.48058 27.1854 0 32.0985 0 38.1622V38.9684C0 41.194 2.06362 42.9997 4.60714 42.9997H38.3929C40.9364 42.9997 43 41.194 43 38.9684V38.1622C43 32.0985 37.5194 27.1854 30.6567 26.9251ZM1.30536 6.70161L1.91964 6.82759V11.7323C1.24777 12.085 0.767857 12.6981 0.767857 13.4372C0.767857 14.1426 1.20938 14.7305 1.83326 15.0917L0.335938 20.3239C0.172768 20.9034 0.5375 21.4997 1.0654 21.4997H5.07746C5.60536 21.4997 5.97009 20.9034 5.80692 20.3239L4.3096 15.0917C4.93348 14.7305 5.375 14.1426 5.375 13.4372C5.375 12.6981 4.89509 12.085 4.22321 11.7323V7.3147L10.558 8.65005C9.73259 10.0946 9.21429 11.7071 9.21429 13.4372C9.21429 19.3749 14.7141 24.1872 21.5 24.1872C28.2859 24.1872 33.7857 19.3749 33.7857 13.4372C33.7857 11.7071 33.277 10.0946 32.442 8.65005L41.685 6.70161C43.4319 6.33208 43.4319 4.42564 41.685 4.05611L23.41 0.192822C22.1623 -0.0675293 20.8473 -0.0675293 19.5996 0.192822L1.30536 4.04771C-0.43192 4.41724 -0.43192 6.33208 1.30536 6.70161Z" fill="#248FB0"/>
</svg>
