<svg width="42" height="42" viewBox="0 0 42 42" fill="none" xmlns="http://www.w3.org/2000/svg">
<path d="M41.6581 15.9091L40.008 14.0528C39.5522 13.5401 38.8136 13.5401 38.3579 14.0528L37.5332 14.9805L35.4259 12.6098C35.8364 10.8618 35.4521 8.92664 34.2337 7.5559L30.9342 3.84398C26.3784 -1.28133 18.9912 -1.28133 14.4346 3.84398L21.0343 7.5559V9.09398C21.0343 10.4861 21.5258 11.8215 22.4015 12.8059L25.9846 16.8369C27.2031 18.2077 28.9232 18.64 30.477 18.1781L32.5843 20.5488L31.7596 21.4766C31.3039 21.9893 31.3039 22.8203 31.7596 23.333L33.4097 25.1893C33.8655 25.702 34.6041 25.702 35.0599 25.1893L41.6595 17.7647C42.1138 17.2528 42.1138 16.4218 41.6581 15.9091ZM20.7514 14.6623C20.4816 14.3588 20.2527 14.0232 20.0332 13.682L1.43215 33.2194C-0.432332 35.1783 -0.482645 38.485 1.32058 40.5144C3.12381 42.5439 6.06381 42.4873 7.80506 40.3889L25.1687 19.4652C24.88 19.2265 24.5927 18.9837 24.3345 18.6933L20.7514 14.6623Z" fill="#808080"/>
</svg>
