<svg width="53" height="20" viewBox="0 0 53 20" fill="none" xmlns="http://www.w3.org/2000/svg">
<path d="M33.1453 9.04315L28.0009 13.2485C27.3798 13.7604 25.5788 13.7435 25.0095 13.2231L19.1198 7.87969L16.0145 10.9131H6.27422L25.1647 18.8035C25.8996 19.1123 27.09 19.1123 27.8249 18.8035L46.7258 10.9131H35.4329L33.1453 9.04315ZM49.034 1.85512L48.7856 1.74935C43.4549 -0.47602 34.729 -0.47602 29.3879 1.74935L26.5 2.95934L23.6121 1.75358C18.2813 -0.47602 9.54513 -0.47602 4.21438 1.75358L3.96596 1.85512C-1.07496 3.96203 -1.29233 7.317 3.21034 9.5593H13.8097L17.5257 5.9124C18.0847 5.36663 19.9685 5.35394 20.5689 5.89547L26.5932 11.3658L31.6651 7.22393C32.2758 6.7247 34.0148 6.7247 34.6255 7.22393L37.4824 9.5593H49.7897C54.2923 7.317 54.075 3.96203 49.034 1.85512Z" fill="#C72727" fill-opacity="0.81"/>
</svg>
