<svg width="40" height="21" viewBox="0 0 40 21" fill="none" xmlns="http://www.w3.org/2000/svg">
<path d="M10.9159 18.0779C10.917 18.3163 11.1284 18.5497 11.525 18.7484L13.467 19.7221C13.7988 19.8885 14.2488 20.025 14.7769 20.1195C15.3051 20.2139 15.8951 20.2633 16.4943 20.2633H23.5068C24.1061 20.2633 24.696 20.2139 25.2242 20.1195C25.7524 20.025 26.2023 19.8885 26.5341 19.7221L28.4761 18.7484C28.8726 18.5497 29.0844 18.3165 29.0852 18.0779L29.0898 16.6243H10.9102L10.9159 18.0779ZM0 7.52776C0 9.20949 1.86932 10.7438 4.95 11.9161C6.82727 12.6305 9.76364 14.1231 10.883 15.3823C10.8875 15.3921 10.8909 15.402 10.8955 15.4118H29.1045C29.1091 15.402 29.1125 15.3925 29.117 15.3823C30.2364 14.1231 33.1727 12.6305 35.05 11.9161C38.1307 10.7438 40 9.20949 40 7.52776C40 3.83646 31.0125 0.845595 19.9375 0.856966C8.34545 0.868716 0 4.00172 0 7.52776ZM20 4.49558C14.9875 4.49558 10.9091 5.8559 10.9091 7.52776C10.9091 7.86282 10.0955 8.1342 9.09091 8.1342C8.08636 8.1342 7.27273 7.86282 7.27273 7.52776C7.27273 5.18692 12.9818 3.28271 20 3.28271C21.0045 3.28271 21.8182 3.55409 21.8182 3.88915C21.8182 4.2242 21.0045 4.49558 20 4.49558Z" fill="#E4F51C"/>
</svg>
