<svg width="53" height="19" viewBox="0 0 53 19" fill="none" xmlns="http://www.w3.org/2000/svg">
<path d="M50.5156 4.7438H49.6875V2.96675C49.6875 1.30817 39.4188 0.00500488 26.5 0.00500488C13.5813 0.00500488 3.3125 1.30817 3.3125 2.96675V4.7438H2.48437C1.11279 4.7438 0 5.14142 0 5.63233V8.59408C0 9.08462 1.11279 9.4826 2.48437 9.4826H3.3125V15.4061C3.3125 16.0603 4.79588 16.5908 6.625 16.5908V17.7755C6.625 18.4297 8.10838 18.9602 9.9375 18.9602H13.25C15.0791 18.9602 16.5625 18.4297 16.5625 17.7755V16.5908H36.4375V17.7755C36.4375 18.4297 37.9209 18.9602 39.75 18.9602H43.0625C44.8916 18.9602 46.375 18.4297 46.375 17.7755V16.5908H47.0375C48.6937 16.5908 49.6875 16.1169 49.6875 15.643V9.4826H50.5156C51.8872 9.4826 53 9.08462 53 8.59408V5.63233C53 5.14142 51.8872 4.7438 50.5156 4.7438ZM16.5625 2.67058C16.5625 2.50694 16.9331 2.3744 17.3906 2.3744H35.6094C36.0669 2.3744 36.4375 2.50694 36.4375 2.67058V3.26293C36.4375 3.42657 36.0669 3.5591 35.6094 3.5591H17.3906C16.9331 3.5591 16.5625 3.42657 16.5625 3.26293V2.67058ZM11.5938 14.8138C9.76463 14.8138 8.28125 14.2832 8.28125 13.6291C8.28125 12.9749 9.76463 12.4444 11.5938 12.4444C13.4229 12.4444 14.9062 12.9749 14.9062 13.6291C14.9062 14.2832 13.4229 14.8138 11.5938 14.8138ZM24.8438 10.6673H13.25C11.4209 10.6673 9.9375 10.1368 9.9375 9.4826V5.9285C9.9375 5.27433 11.4209 4.7438 13.25 4.7438H24.8438V10.6673ZM28.1562 10.6673V4.7438H39.75C41.5791 4.7438 43.0625 5.27433 43.0625 5.9285V9.4826C43.0625 10.1368 41.5791 10.6673 39.75 10.6673H28.1562ZM41.4062 14.8138C39.5771 14.8138 38.0937 14.2832 38.0937 13.6291C38.0937 12.9749 39.5771 12.4444 41.4062 12.4444C43.2354 12.4444 44.7188 12.9749 44.7188 13.6291C44.7188 14.2832 43.2354 14.8138 41.4062 14.8138Z" fill="#E67105"/>
</svg>
