<svg width="60" height="40" viewBox="0 0 60 40" fill="none" xmlns="http://www.w3.org/2000/svg">
<path d="M28.2354 11.2734L33.8885 12.3906C34.0805 12.4243 34.2523 12.5046 34.3772 12.619C34.5021 12.7335 34.5731 12.8756 34.5792 13.0234C34.5792 13.3828 34.1531 13.6797 33.6292 13.6797H29.9208C29.5212 13.6788 29.1255 13.6205 28.7552 13.5078C28.2094 13.3359 27.5802 13.375 27.1615 13.6641L25.1823 15.0312C25.0908 15.0913 25.0117 15.1614 24.9479 15.2391C24.8662 15.3396 24.8118 15.4512 24.7879 15.5676C24.764 15.684 24.771 15.8027 24.8086 15.917C24.8462 16.0313 24.9135 16.1389 25.0068 16.2336C25.1001 16.3283 25.2174 16.4082 25.3521 16.4688C26.4481 16.9621 27.6753 17.2688 28.9469 17.3672V18.75C28.9469 19.4375 29.7625 20 30.7562 20H32.5656C33.5604 20 34.376 19.4375 34.376 18.75V17.375C37.8062 17.0938 40.401 14.9531 39.949 12.4531C39.6208 10.6562 37.6094 9.22656 35.099 8.72656L29.4458 7.60938C29.2538 7.5757 29.082 7.49541 28.9572 7.38098C28.8323 7.26654 28.7613 7.12437 28.7552 6.97656C28.7552 6.61719 29.1812 6.32031 29.7052 6.32031H33.4135C33.8146 6.32078 34.2117 6.37913 34.5833 6.49219C35.1281 6.66406 35.7583 6.625 36.1771 6.33594L38.1562 4.96875C38.2448 4.90993 38.321 4.84146 38.3823 4.76562C38.4647 4.66514 38.5197 4.55339 38.5442 4.43686C38.5687 4.32032 38.5622 4.2013 38.525 4.08667C38.4878 3.97204 38.4207 3.86408 38.3275 3.76901C38.2344 3.67395 38.117 3.59367 37.9823 3.53281C36.8858 3.03948 35.6583 2.73277 34.3865 2.63438V1.25C34.3865 0.5625 33.5719 0 32.5771 0H30.7677C29.7729 0 28.9583 0.5625 28.9583 1.25V2.625C25.5323 2.90625 22.9323 5.04688 23.3844 7.54688C23.7115 9.34375 25.7292 10.7734 28.2354 11.2734ZM58.8823 25.6328C57.6531 24.7969 55.7365 24.8516 54.4448 25.6328L44.8198 31.4062C43.6383 32.1171 42.1678 32.5031 40.6531 32.5H28.3333C27.8913 32.5 27.4674 32.3683 27.1548 32.1339C26.8423 31.8995 26.6667 31.5815 26.6667 31.25C26.6667 30.9185 26.8423 30.6005 27.1548 30.3661C27.4674 30.1317 27.8913 30 28.3333 30H36.4885C38.1448 30 39.6875 29.1484 39.9521 27.9219C39.9847 27.781 40.0007 27.6383 40 27.4953C39.9983 26.8331 39.6464 26.1984 39.0215 25.7306C38.3965 25.2627 37.5496 25 36.6667 25H20C17.1892 25.0006 14.464 25.7257 12.2812 27.0539L7.4375 30H1.66667C1.22464 30 0.800716 30.1317 0.488155 30.3661C0.175595 30.6005 0 30.9185 0 31.25L0 38.75C0 39.0815 0.175595 39.3995 0.488155 39.6339C0.800716 39.8683 1.22464 40 1.66667 40H38.8302C40.3444 40.0009 41.8139 39.6151 42.9969 38.9062L58.75 29.4531C59.1289 29.2258 59.4371 28.9392 59.6531 28.6133C59.869 28.2874 59.9874 27.93 60.0001 27.5662C60.0128 27.2024 59.9195 26.8409 59.7266 26.507C59.5337 26.173 59.2459 25.8747 58.8833 25.6328H58.8823Z" fill="#FF00B8" fill-opacity="0.69"/>
</svg>
